<svg width="1900" height="608" viewBox="0 0 1900 608" fill="none" xmlns="http://www.w3.org/2000/svg">
<g filter="url(#filter0_d_561_5823)">
<rect y="26" width="1899" height="547.588" fill="url(#paint0_diamond_561_5823)"/>
</g>
<path d="M1877.55 312.424C1859.03 309.763 1845.48 319.457 1833.74 328.011C1824.94 334.473 1820.19 334.093 1811.16 331.052C1799.2 326.87 1786.55 324.399 1770.74 320.408C1782.71 316.416 1785.65 308.623 1792.42 303.681C1794.23 302.35 1797.39 300.259 1794 298.359C1786.55 293.987 1790.39 291.896 1795.58 289.235C1799.65 287.144 1801.9 283.913 1803.71 280.301C1804.61 278.591 1805.07 276.12 1807.78 276.69C1809.58 277.07 1811.39 278.971 1812.29 280.681C1813.65 283.342 1815 286.194 1814.78 288.855C1814.1 300.449 1820.42 310.334 1826.29 320.218C1827.42 322.118 1828.32 326.3 1832.16 323.259C1834.65 321.358 1840.52 319.267 1836 315.085C1826.97 306.532 1825.39 295.698 1822.45 285.433C1820.42 278.21 1818.39 272.128 1807.32 271.748C1801.23 271.558 1798.97 266.045 1795.36 262.624C1793.1 260.533 1801.9 261.293 1798.29 256.732C1787.91 243.046 1784.74 227.65 1785.42 211.493C1785.42 208.642 1785.2 206.171 1781.36 205.791C1777.52 205.221 1775.26 207.882 1775.94 210.353C1779.32 222.708 1763.07 226.129 1761.03 236.393C1760.36 228.79 1761.49 221.567 1751.33 217.766C1742.29 214.344 1736.42 218.336 1731.23 222.898C1727.84 225.749 1719.71 227.27 1722.65 232.212C1725.58 236.964 1731.23 230.501 1735.97 231.831C1736.65 232.022 1737.1 232.402 1738.23 232.972C1735.29 238.294 1732.58 243.806 1729.42 249.319C1725.36 256.351 1724 264.715 1711.36 266.996C1707.52 267.756 1701.2 274.599 1702.1 280.681C1702.78 285.243 1707.52 287.524 1712.26 289.045C1714.07 286.384 1712.04 285.243 1711.13 284.103C1707.52 279.351 1708.65 274.599 1712.49 270.797C1716.1 267.186 1721.52 266.806 1726.94 267.756C1731.68 268.516 1735.29 270.797 1738.45 273.458C1744.55 278.591 1751.55 281.822 1760.13 282.582C1761.71 282.772 1781.36 304.821 1781.13 306.152C1781.13 306.532 1781.13 306.722 1780.91 307.102C1780 309.763 1758.1 319.837 1754.49 318.697C1728.07 310.334 1701.65 316.796 1675.23 317.937C1668 318.317 1662.58 322.689 1664.17 328.771C1665.97 335.044 1669.13 341.696 1674.33 346.258C1688.1 358.423 1686.97 367.547 1668.91 376.671C1666.87 373.249 1670.04 366.406 1660.55 367.547C1653.78 368.307 1646.55 366.596 1647.91 375.91C1648.36 379.522 1643.84 378.761 1641.13 378.951C1628.71 379.712 1617.42 377.811 1605.91 373.629C1599.36 371.348 1595.52 369.448 1595.3 363.745C1595.07 352.911 1595.3 342.266 1595.3 331.432C1595.3 326.49 1598.01 322.689 1603.88 321.738C1616.52 319.457 1618.33 318.507 1621.49 309.193C1621.71 308.243 1621.94 307.292 1622.62 306.532C1626.46 299.879 1621.49 295.127 1617.88 289.995C1616.97 288.475 1615.39 287.334 1613.59 289.425C1607.94 295.697 1606.81 290.375 1605.46 286.954C1603.42 282.202 1600.49 278.02 1596.65 273.649C1587.39 280.871 1584.46 288.665 1589.88 297.788C1592.59 302.16 1591.01 306.532 1591.23 310.904C1591.46 314.705 1588.07 314.895 1585.13 314.515C1580.17 313.755 1583.33 311.094 1584.23 309.573C1589.2 300.64 1584.01 294.367 1577.46 287.904C1570.01 294.557 1565.49 301.59 1570.23 310.333C1570.91 311.664 1572.72 312.995 1570.46 314.515C1567.52 316.416 1566.62 318.887 1570.01 320.788C1572.94 322.308 1575.65 325.73 1579.94 323.639C1590.78 318.127 1592.36 324.779 1592.81 331.242C1593.49 339.415 1593.04 347.779 1593.04 355.952C1593.04 371.348 1593.26 372.489 1576.78 375.34C1566.17 377.241 1554.65 377.241 1543.59 378.191C1533.43 379.142 1523.04 375.15 1512.88 373.249C1501.36 371.158 1488.94 372.299 1476.97 372.109C1464.1 371.728 1453.49 366.026 1452.59 358.613C1452.14 355.192 1452.59 351.39 1453.94 347.969C1454.85 345.498 1453.94 344.547 1452.14 343.217C1450.78 342.457 1449.43 342.267 1448.07 343.407C1446.49 344.738 1446.04 345.498 1447.17 347.969C1449.88 353.861 1447.39 360.134 1446.72 366.216C1446.27 370.398 1439.94 366.977 1437.01 368.687C1434.98 370.018 1432.72 371.729 1432.27 373.629C1430.69 378.951 1426.62 379.332 1421.2 379.332C1402.69 379.142 1384.4 378.761 1365.88 379.142C1358.2 379.332 1355.94 376.671 1356.17 370.778C1356.4 357.853 1356.17 345.118 1356.17 332.192C1355.72 332.192 1355.27 332.192 1354.82 332.192C1354.82 346.258 1354.82 360.324 1354.82 374.199C1341.04 361.844 1329.53 348.729 1318.01 335.804C1315.3 332.763 1317.78 331.242 1319.82 329.531C1321.17 328.391 1322.07 326.87 1320.49 325.35C1319.14 323.829 1317.33 323.639 1315.75 324.779C1313.49 326.49 1311.46 328.581 1308.53 325.35C1305.82 322.308 1307.4 320.218 1310.11 318.127C1311.69 316.986 1312.14 315.656 1310.56 313.945C1308.98 312.424 1307.17 312.234 1305.82 313.565C1301.98 317.366 1300.17 315.275 1297.24 312.424C1293.4 308.623 1295.88 307.292 1299.49 305.391C1301.3 304.441 1301.53 302.73 1300.17 301.4C1298.82 299.879 1297.01 299.689 1295.43 301.02C1292.72 303.491 1290.46 304.631 1287.3 301.02C1284.14 297.598 1287.07 295.888 1289.33 293.987C1290.69 292.846 1292.04 291.516 1290.24 289.995C1289.11 288.855 1287.53 287.524 1285.49 288.855C1282.78 290.565 1280.98 293.036 1277.37 289.425C1273.53 285.623 1276.91 283.913 1279.4 281.632C1280.75 280.301 1280.98 278.781 1279.17 277.45C1277.82 276.5 1276.24 275.929 1275.33 277.07C1269.46 282.772 1266.75 278.02 1264.72 274.599C1261.33 268.897 1248.46 264.715 1259.75 256.161C1260.66 255.401 1257.27 252.55 1256.82 252.93C1250.49 259.013 1244.85 252.74 1238.98 252.17C1221.82 250.839 1204.66 249.319 1187.5 247.988C1186.82 250.839 1189.3 252.36 1190.88 253.88C1221.14 288.855 1243.27 327.631 1266.53 366.026C1267.43 367.737 1270.37 369.638 1266.98 371.729C1262.46 374.58 1245.3 370.968 1241.91 366.786C1239.2 363.745 1238.98 356.902 1233.33 358.233C1225.66 360.324 1235.59 365.076 1232.43 369.448C1228.14 369.448 1222.95 369.448 1217.75 369.448C1205.79 369.638 1193.14 367.357 1182.3 372.109C1171.92 376.861 1163.56 374.2 1155.21 370.398C1145.95 366.216 1137.82 363.175 1129.24 371.729C1126.76 374.2 1122.46 373.439 1119.3 370.968C1117.05 369.258 1115.46 366.216 1111.63 366.026C1110.05 367.927 1108.24 369.638 1107.11 371.538C1101.69 380.852 1093.79 383.323 1082.5 378.571C1080.47 377.621 1077.76 375.72 1075.27 378.001C1066.92 385.414 1058.11 380.472 1049.08 379.522C1039.14 378.381 1034.4 375.72 1041.4 367.357C1043.21 365.266 1046.14 361.844 1041.18 360.134C1036.66 358.613 1035.98 362.985 1034.63 365.076C1028.31 374.58 1015.89 383.893 1002.11 388.836C1023.34 341.886 1053.6 299.689 1084.98 256.922C1067.82 254.451 1051.79 252.93 1036.21 249.889C1022.89 247.228 1013.18 248.558 1006.85 259.583C1005.72 261.674 1004.37 266.806 998.951 263.004C996.919 261.674 995.564 260.533 993.306 262.624C990.596 265.285 993.08 266.806 995.112 267.946C999.402 270.417 995.79 272.318 994.661 274.219C993.306 276.31 991.273 277.83 988.564 275.169C986.757 273.458 984.499 273.268 982.919 275.359C981.112 277.45 982.693 279.161 984.951 279.731C990.822 280.871 987.435 283.342 985.854 285.053C984.274 287.144 982.919 291.136 978.403 287.904C976.145 286.384 974.338 284.673 972.08 287.524C969.822 290.185 972.758 291.706 974.79 292.846C978.854 294.937 976.596 297.218 975.016 299.119C973.887 300.639 972.306 302.35 969.596 301.02C967.338 299.879 965.08 296.458 962.145 299.689C958.758 303.301 963.726 304.441 965.532 306.342C968.016 309.193 965.984 311.094 964.177 312.995C962.145 315.276 960.564 313.755 958.758 312.234C956.952 310.714 955.145 308.433 952.435 311.284C949.5 314.325 952.887 316.416 955.145 317.176C963.5 319.647 956.5 322.498 955.597 324.779C953.79 328.581 951.532 327.06 949.048 324.969C947.468 323.639 946.113 320.408 942.952 322.879C939.565 325.54 942.5 328.011 944.758 328.961C951.306 331.432 949.048 334.283 946.339 337.705C942.274 343.027 940.468 337.895 937.984 336.374C935.952 335.234 934.371 334.093 932.113 335.804C929.404 337.895 931.662 339.796 933.242 340.366C945.21 344.167 937.758 349.109 934.597 353.861C930.984 359.373 927.146 364.886 923.307 370.208C919.694 374.96 891.695 375.53 888.082 371.158C887.63 370.588 887.63 370.018 887.404 369.448C885.598 366.026 891.243 359.564 882.211 358.993C877.695 358.803 871.147 356.712 869.792 363.745C869.792 363.935 868.663 364.125 868.211 364.125C861.437 363.555 861.437 363.555 860.534 369.067C859.631 374.39 855.792 378.381 849.921 378.571C841.566 378.571 846.76 372.299 845.405 369.067C844.953 367.547 845.179 365.836 844.953 364.316C844.728 362.985 843.599 362.035 842.018 361.844C840.437 361.654 838.857 362.225 838.631 363.555C836.599 372.679 825.986 369.638 819.889 373.059C817.631 374.199 812.889 373.819 811.986 369.828C810.406 362.035 805.664 364.886 802.277 368.307C797.761 372.489 792.793 374.2 786.471 373.629C783.987 373.439 781.954 373.629 779.471 375.34C769.31 381.993 758.019 381.232 748.31 374.58C744.697 372.109 740.633 368.307 736.794 374.39C733.181 380.092 725.052 381.042 719.859 381.803C714.214 382.563 709.698 376.48 706.988 370.588C700.44 355.382 693.44 339.986 670.182 337.705C665.44 337.325 664.763 329.911 657.763 331.242C656.86 326.11 657.311 321.168 658.215 316.226C659.344 309.763 658.892 302.73 653.247 298.359C647.376 293.987 646.247 289.235 646.473 283.342C646.473 280.681 648.054 275.929 642.408 276.119C638.118 276.31 637.667 280.491 637.892 283.723C638.344 290.755 638.118 297.028 630.893 302.54C627.054 305.391 623.441 309.953 627.505 316.416C629.764 320.027 631.344 327.631 625.699 331.432C619.377 335.804 613.28 340.366 604.248 342.076C592.958 344.167 585.055 351.77 583.7 361.464C582.571 369.258 578.506 370.778 570.603 370.018C566.99 369.638 563.152 369.638 559.313 369.828C547.571 370.398 536.055 364.696 524.088 369.257C521.378 370.208 519.798 368.497 520.023 366.216C520.249 356.712 510.991 355.002 503.54 353.291C496.766 351.58 483.218 360.324 481.411 366.786C480.282 370.778 477.121 372.489 473.056 373.629C468.54 374.77 465.605 372.299 464.024 369.638C461.315 364.886 455.444 363.365 451.605 359.944C448.67 357.473 443.251 354.622 443.025 362.225C443.025 365.836 439.864 367.357 436.476 367.167C433.315 366.977 431.509 364.506 431.057 361.844C430.831 359.944 430.831 358.043 430.831 356.142C430.831 348.159 426.993 344.357 416.38 344.547C406.445 344.737 400.8 347.209 401.703 355.762C402.38 362.985 396.961 362.035 391.768 362.415C385.445 362.795 382.058 361.654 382.284 355.382C382.735 341.696 382.058 328.201 382.735 314.515C382.961 310.143 382.284 306.532 377.316 305.391C368.058 302.92 366.703 297.218 368.058 290.565C369.413 283.152 366.026 274.599 358.8 274.409C350.671 274.219 349.091 282.962 349.542 290.185C349.768 294.557 352.704 301.21 346.833 303.301C334.865 307.672 337.349 315.656 337.349 323.259C337.349 329.911 337.349 336.564 337.349 343.217C337.349 364.125 337.349 364.316 312.059 363.365C308.446 363.175 304.608 364.125 302.801 359.754C301.672 357.093 297.834 357.093 296.93 359.564C294.898 364.696 290.382 362.985 286.769 362.985C267.576 363.175 248.383 362.795 229.19 363.175C220.835 363.365 219.254 360.704 219.48 354.431C219.932 329.151 220.383 303.681 219.254 278.4C218.803 265.665 214.964 253.12 202.997 243.616C201.642 242.666 200.061 241.145 200.061 239.815C200.739 224.228 198.706 209.402 193.287 194.196C190.126 184.882 191.029 174.238 190.803 164.164C190.352 139.264 184.424 167.453 186.005 142.363C186.682 133.62 186.005 115.752 186.005 106.819C185.101 106.819 183.972 106.819 183.069 106.819C182.843 108.339 182.843 109.86 182.618 111.38C181.714 151.677 181.997 147.817 181.094 188.114C181.094 191.345 182.223 195.717 180.416 197.427C168.449 207.882 171.836 220.427 172.062 232.592C172.062 239.054 170.933 243.996 164.158 247.988C158.513 251.409 156.707 257.302 155.804 263.004C153.546 276.69 161.449 291.706 149.256 304.251C153.772 324.779 142.933 344.357 142.707 364.696C142.707 371.158 148.804 381.422 132.546 381.422C132.095 381.422 131.643 382.373 131.417 382.943C127.804 390.166 121.03 388.075 116.063 385.414C110.643 382.373 108.159 381.613 107.708 387.885C107.482 389.596 107.256 391.116 105.224 391.687C102.74 392.257 102.514 390.356 101.385 389.216C97.0951 384.464 91.4501 383.513 88.063 389.406C83.3212 397.959 72.4826 399.48 64.8054 404.612C62.0957 406.323 56.4507 406.323 53.0636 403.852C50.5798 401.951 51.9346 399.48 54.6442 397.579C57.1281 396.058 54.87 395.678 53.2894 394.538C48.3218 391.497 43.5799 389.596 37.2574 390.356C26.4189 391.497 16.032 396.058 4.74186 394.728C4.74186 399.86 4.74186 404.802 4.74186 409.934H0V574H1899V425.711C1899 420.008 1899 414.306 1899 408.604C1899 373.819 1899 338.845 1899 304.061C1890.19 304.061 1886.81 313.755 1877.55 312.424Z" fill="url(#paint1_diamond_561_5823)" fill-opacity="0.3"/>
<defs>
<filter id="filter0_d_561_5823" x="-30" y="0" width="1959" height="607.588" filterUnits="userSpaceOnUse" color-interpolation-filters="sRGB">
<feFlood flood-opacity="0" result="BackgroundImageFix"/>
<feColorMatrix in="SourceAlpha" type="matrix" values="0 0 0 0 0 0 0 0 0 0 0 0 0 0 0 0 0 0 127 0" result="hardAlpha"/>
<feOffset dy="4"/>
<feGaussianBlur stdDeviation="15"/>
<feColorMatrix type="matrix" values="0 0 0 0 0 0 0 0 0 0 0 0 0 0 0 0 0 0 0.1 0"/>
<feBlend mode="normal" in2="BackgroundImageFix" result="effect1_dropShadow_561_5823"/>
<feBlend mode="normal" in="SourceGraphic" in2="effect1_dropShadow_561_5823" result="shape"/>
</filter>
<radialGradient id="paint0_diamond_561_5823" cx="0" cy="0" r="1" gradientUnits="userSpaceOnUse" gradientTransform="translate(-443.863 120.976) rotate(7.59808) scale(3423.09 1163.48)">
<stop stop-color="#FDE1C7"/>
<stop offset="0.161458" stop-color="#EE83A9"/>
<stop offset="1" stop-color="#FFBE5C"/>
</radialGradient>
<radialGradient id="paint1_diamond_561_5823" cx="0" cy="0" r="1" gradientUnits="userSpaceOnUse" gradientTransform="translate(-519 646.5) rotate(2.92306) scale(4408.24 1276.88)">
<stop stop-color="#EB81A1"/>
<stop offset="0.197917" stop-color="#F24C74"/>
<stop offset="1" stop-color="#FF3232"/>
</radialGradient>
</defs>
</svg>
