<svg width="25" height="25" viewBox="0 0 25 25" fill="none" xmlns="http://www.w3.org/2000/svg">
<path d="M12.5043 6.08063C8.95947 6.08063 6.08968 8.95355 6.08968 12.4952C6.08968 16.04 8.9626 18.9098 12.5043 18.9098C16.0491 18.9098 18.9189 16.0369 18.9189 12.4952C18.9189 8.95042 16.0459 6.08063 12.5043 6.08063ZM12.5043 16.6588C10.2032 16.6588 8.34072 14.7952 8.34072 12.4952C8.34072 10.1952 10.2043 8.33167 12.5043 8.33167C14.8043 8.33167 16.6678 10.1952 16.6678 12.4952C16.6688 14.7952 14.8053 16.6588 12.5043 16.6588Z" fill="url(#paint0_diamond_1_5)"/>
<path d="M17.6544 0.0785278C15.3544 -0.0287639 9.65753 -0.0235556 7.35545 0.0785278C5.33253 0.173319 3.54815 0.661861 2.10961 2.1004C-0.294555 4.50457 0.0127367 7.74415 0.0127367 12.4952C0.0127367 17.3577 -0.258097 20.5223 2.10961 22.89C4.52315 25.3025 7.80961 24.9869 12.5044 24.9869C17.3211 24.9869 18.9836 24.99 20.6867 24.3306C23.0023 23.4317 24.7502 21.3619 24.9211 17.6442C25.0294 15.3431 25.0232 9.64728 24.9211 7.3452C24.7148 2.95665 22.3596 0.295194 17.6544 0.0785278V0.0785278ZM21.295 21.2994C19.719 22.8754 17.5325 22.7348 12.4742 22.7348C7.26586 22.7348 5.17732 22.8119 3.65336 21.2837C1.89815 19.5369 2.21586 16.7317 2.21586 12.4785C2.21586 6.72332 1.62524 2.57853 7.40128 2.28269C8.72836 2.23582 9.11899 2.22019 12.4596 2.22019L12.5065 2.25144C18.0575 2.25144 22.4127 1.67019 22.6742 7.4452C22.7336 8.7629 22.7471 9.15874 22.7471 12.4942C22.7461 17.6421 22.844 19.7431 21.295 21.2994V21.2994Z" fill="url(#paint1_diamond_1_5)"/>
<path d="M19.1731 7.32648C20.001 7.32648 20.6721 6.65537 20.6721 5.82752C20.6721 4.99967 20.001 4.32856 19.1731 4.32856C18.3453 4.32856 17.6742 4.99967 17.6742 5.82752C17.6742 6.65537 18.3453 7.32648 19.1731 7.32648Z" fill="url(#paint2_diamond_1_5)"/>
<defs>
<radialGradient id="paint0_diamond_1_5" cx="0" cy="0" r="1" gradientUnits="userSpaceOnUse" gradientTransform="translate(3.09105 8.30578) rotate(24.8254) scale(25.2564 24.9588)">
<stop stop-color="#FDE1C7"/>
<stop offset="0.161458" stop-color="#EE83A9"/>
<stop offset="1" stop-color="#FFBE5C"/>
</radialGradient>
<radialGradient id="paint1_diamond_1_5" cx="0" cy="0" r="1" gradientUnits="userSpaceOnUse" gradientTransform="translate(-5.84338 4.3362) rotate(24.8258) scale(49.2169 48.6376)">
<stop stop-color="#FDE1C7"/>
<stop offset="0.161458" stop-color="#EE83A9"/>
<stop offset="1" stop-color="#FFBE5C"/>
</radialGradient>
<radialGradient id="paint2_diamond_1_5" cx="0" cy="0" r="1" gradientUnits="userSpaceOnUse" gradientTransform="translate(16.9734 4.84854) rotate(24.8254) scale(5.90191 5.83237)">
<stop stop-color="#FDE1C7"/>
<stop offset="0.161458" stop-color="#EE83A9"/>
<stop offset="1" stop-color="#FFBE5C"/>
</radialGradient>
</defs>
</svg>
