<svg width="25" height="27" viewBox="0 0 25 27" fill="none" xmlns="http://www.w3.org/2000/svg">
<path d="M12.4549 0C8.7292 0 5.68359 3.04561 5.68359 6.77135C5.68359 10.4971 8.7292 13.5427 12.4549 13.5427C16.1807 13.5427 19.2263 10.4971 19.2263 6.77135C19.2263 3.04561 16.1807 0 12.4549 0Z" fill="url(#paint0_linear_561_5567)"/>
<path d="M24.0761 18.9545C23.8987 18.511 23.6622 18.097 23.396 17.7126C22.0358 15.7019 19.9365 14.3713 17.5709 14.046C17.2753 14.0165 16.95 14.0756 16.7134 14.253C15.4715 15.1696 13.9931 15.6427 12.4555 15.6427C10.9178 15.6427 9.4394 15.1696 8.19748 14.253C7.96091 14.0756 7.63564 13.9869 7.33998 14.046C4.97444 14.3713 2.84548 15.7019 1.51488 17.7126C1.24876 18.097 1.01218 18.5406 0.834807 18.9545C0.746119 19.132 0.775662 19.3389 0.86435 19.5164C1.10093 19.9303 1.39659 20.3443 1.66271 20.6991C2.07666 21.261 2.52022 21.7636 3.02291 22.2367C3.43686 22.6507 3.90996 23.0351 4.38311 23.4195C6.71905 25.1641 9.52814 26.0807 12.4259 26.0807C15.3237 26.0807 18.1328 25.164 20.4687 23.4195C20.9418 23.0647 21.4149 22.6507 21.8289 22.2367C22.302 21.7636 22.7751 21.2609 23.1891 20.6991C23.4848 20.3147 23.751 19.9303 23.9875 19.5164C24.1353 19.3389 24.1648 19.1319 24.0761 18.9545Z" fill="url(#paint1_linear_561_5567)"/>
<defs>
<linearGradient id="paint0_linear_561_5567" x1="5.68359" y1="0" x2="19.2503" y2="0.0240518" gradientUnits="userSpaceOnUse">
<stop stop-color="#8940E9"/>
<stop offset="1" stop-color="#F75AA9"/>
</linearGradient>
<linearGradient id="paint1_linear_561_5567" x1="0.78125" y1="14.0278" x2="24.1671" y2="14.1081" gradientUnits="userSpaceOnUse">
<stop stop-color="#8940E9"/>
<stop offset="1" stop-color="#F75AA9"/>
</linearGradient>
</defs>
</svg>
