<svg width="17" height="17" viewBox="0 0 17 17" fill="none" xmlns="http://www.w3.org/2000/svg">
<path d="M11.8435 10.0878C13.9249 7.20618 13.2288 3.21602 10.2896 1.17585C7.35033 -0.864327 3.28035 -0.182319 1.19937 2.69976C-0.881616 5.58135 -0.185966 9.57103 2.75376 11.6112C4.85165 13.0674 7.6253 13.1795 9.83806 11.8983L14.6459 16.5837C15.1651 17.1194 16.0288 17.1409 16.5753 16.6319C17.1217 16.1235 17.1436 15.2767 16.625 14.7409C16.6086 14.7239 16.5927 14.7083 16.5753 14.6922L11.8435 10.0878ZM6.51744 10.5246C4.19479 10.5251 2.31171 8.68037 2.31022 6.40327C2.30972 4.12618 4.19131 2.28003 6.51445 2.27905C8.83411 2.27808 10.7162 4.11984 10.7207 6.39401C10.7247 8.6716 8.84406 10.5207 6.52042 10.5246C6.51942 10.5246 6.51893 10.5246 6.51744 10.5246Z" fill="url(#paint0_linear_1359_1756)"/>
<defs>
<linearGradient id="paint0_linear_1359_1756" x1="0" y1="0" x2="17.0301" y2="0.030192" gradientUnits="userSpaceOnUse">
<stop stop-color="#8940E9"/>
<stop offset="1" stop-color="#F75AA9"/>
</linearGradient>
</defs>
</svg>
