<svg width="25" height="23" viewBox="0 0 25 23" fill="none" xmlns="http://www.w3.org/2000/svg">
<path d="M24.9641 8.7337C24.878 8.47794 24.6488 8.29156 24.3729 8.25294L16.6228 7.16677L13.1568 0.393733C13.0334 0.152624 12.7788 0 12.5 0C12.2212 0 11.9666 0.152624 11.8433 0.393733L8.37706 7.16677L0.627091 8.25294C0.351262 8.29156 0.122015 8.47794 0.0358821 8.73365C-0.0502992 8.98941 0.0215755 9.27012 0.221233 9.45778L5.82902 14.7299L4.50539 22.1742C4.45823 22.4393 4.57121 22.707 4.79675 22.8651C4.92434 22.9545 5.07546 23 5.22732 23C5.34392 23 5.46091 22.9732 5.56804 22.9189L12.5 19.404L19.4316 22.9188C19.6785 23.0439 19.9774 23.0231 20.203 22.8651C20.4285 22.707 20.5416 22.4392 20.4944 22.1742L19.1704 14.7299L24.7788 9.45773C24.9784 9.27012 25.0503 8.98941 24.9641 8.7337Z" fill="white"/>
</svg>
